<mxfile host="65bd71144e">
    <diagram id="u2cX7omoXndKWvgfLFpg" name="Page-1">
        <mxGraphModel dx="1148" dy="846" grid="1" gridSize="10" guides="1" tooltips="1" connect="1" arrows="1" fold="1" page="1" pageScale="1" pageWidth="850" pageHeight="1100" math="0" shadow="0">
            <root>
                <mxCell id="0"/>
                <mxCell id="1" parent="0"/>
                <mxCell id="8" style="edgeStyle=none;html=1;exitX=1;exitY=0.5;exitDx=0;exitDy=0;entryX=0;entryY=0.5;entryDx=0;entryDy=0;fontFamily=Times New Roman;fontSize=8;" parent="1" source="2" target="3" edge="1">
                    <mxGeometry relative="1" as="geometry"/>
                </mxCell>
                <mxCell id="2" value="Input Data" style="rounded=0;whiteSpace=wrap;html=1;fontFamily=Times New Roman;fontSize=8;" parent="1" vertex="1">
                    <mxGeometry x="70" y="50" width="240" height="140" as="geometry"/>
                </mxCell>
                <mxCell id="9" style="edgeStyle=none;html=1;exitX=1;exitY=0.5;exitDx=0;exitDy=0;entryX=0;entryY=0.5;entryDx=0;entryDy=0;fontFamily=Times New Roman;fontSize=8;" parent="1" source="3" target="4" edge="1">
                    <mxGeometry relative="1" as="geometry"/>
                </mxCell>
                <mxCell id="3" value="Preprocessing" style="rounded=0;whiteSpace=wrap;html=1;fontFamily=Times New Roman;fontSize=8;" parent="1" vertex="1">
                    <mxGeometry x="340" y="50" width="220" height="140" as="geometry"/>
                </mxCell>
                <mxCell id="10" style="edgeStyle=none;html=1;exitX=0.5;exitY=1;exitDx=0;exitDy=0;entryX=0.5;entryY=0;entryDx=0;entryDy=0;fontFamily=Times New Roman;fontSize=8;" parent="1" source="4" target="5" edge="1">
                    <mxGeometry relative="1" as="geometry"/>
                </mxCell>
                <mxCell id="4" value="Feature&amp;nbsp;&amp;nbsp;Extraction" style="rounded=0;whiteSpace=wrap;html=1;fontFamily=Times New Roman;fontSize=8;" parent="1" vertex="1">
                    <mxGeometry x="590" y="50" width="220" height="140" as="geometry"/>
                </mxCell>
                <mxCell id="11" style="edgeStyle=none;html=1;exitX=0;exitY=0.5;exitDx=0;exitDy=0;entryX=1;entryY=0.5;entryDx=0;entryDy=0;fontFamily=Times New Roman;fontSize=8;" parent="1" source="5" target="6" edge="1">
                    <mxGeometry relative="1" as="geometry"/>
                </mxCell>
                <mxCell id="5" value="Model Training" style="rounded=0;whiteSpace=wrap;html=1;fontFamily=Times New Roman;fontSize=8;" parent="1" vertex="1">
                    <mxGeometry x="590" y="240" width="220" height="140" as="geometry"/>
                </mxCell>
                <mxCell id="6" value="Output Results&amp;nbsp;" style="rounded=0;whiteSpace=wrap;html=1;fontFamily=Times New Roman;fontSize=8;" parent="1" vertex="1">
                    <mxGeometry x="340" y="240" width="220" height="140" as="geometry"/>
                </mxCell>
            </root>
        </mxGraphModel>
    </diagram>
</mxfile>